<svg xmlns="http://www.w3.org/2000/svg" viewBox="0 0 1254 1254" fill="none">
  <title>Symmetrical heritage ornamental frame</title>
  <g stroke="#ff7f22" stroke-width="3.8" stroke-linecap="round" stroke-linejoin="round">
    <path d="M626 27C584 91 535 98 474 118C365 154 287 229 271 308H243C186 308 139 357 139 418v41h-7c-43 0-77 37-77 82v424c0 48 33 82 77 84v25c0 46 38 82 96 82h244"/>
    <path d="M626 27C668 91 717 98 778 118C887 154 965 229 981 308h28c57 0 104 49 104 110v41h7c43 0 77 37 77 82v424c0 48-33 82-77 84v25c0 46-38 82-96 82H780"/>
  </g>

  <g fill="#ff7f22" transform="translate(0 180) scale(1 .83)">
    <path d="M626 1059c-15 17-16 27 0 47 16-20 15-30 0-47Zm0 91c-18 29-18 45 0 65 18-20 18-36 0-65Zm0 31c-7 17-7 26 0 34 7-8 7-17 0-34Zm0 17c-12 22-12 36 0 55 12-19 12-33 0-55Z"/>
    <path d="M626 1217c-11 12-11 24 0 38 11-14 11-26 0-38Z" transform="translate(0 -31)"/>
    <path d="M391 1124l12 12-12 12-12-12 12-12Zm-72 5 14 7-14 7-14-7 14-7Zm526-5 12 12-12 12-12-12 12-12Zm58 5 14 7-14 7-14-7 14-7Z"/>
    <circle cx="369" cy="1136" r="4"/><circle cx="413" cy="1136" r="4"/><circle cx="823" cy="1136" r="4"/><circle cx="867" cy="1136" r="4"/>
  </g>

  <g stroke="#ff7f22" stroke-width="3.6" stroke-linecap="round" stroke-linejoin="round" transform="translate(0 180) scale(1 .83)">
    <path d="M626 1127c-8-14-29-28-29-42 0-12 14-18 23-9 8 8 3 20-6 26M626 1127c8-14 29-28 29-42 0-12-14-18-23-9-8 8-3 20 6 26"/>
    <path d="M626 1127c-20-13-37-29-31-43 4-10 17-9 21 0 4 8-3 15-10 17M626 1127c20-13 37-29 31-43-4-10-17-9-21 0-4 8 3 15 10 17"/>
    <path d="M626 1128c-21 14-29 33-26 49 2 13 15 17 22 8 7-9 1-19-8-20M626 1128c21 14 29 33 26 49-2 13-15 17-22 8-7-9-1-19 8-20"/>
    <path d="M626 1175c-14 19-19 39-9 48 8 8 19 1 17-9-1-7-8-10-13-6M626 1175c14 19 19 39 9 48-8 8-19 1-17-9 1-7 8-10 13-6"/>

    <path d="M626 1130c-19-5-31-20-43-15-12 5-9 22 3 24 9 2 16-6 13-14"/>
    <path d="M591 1141c-18 30-43 30-59 13-13-14-8-34 7-38 13-3 22 8 18 19-3 8-12 11-18 5"/>
    <path d="M552 1157c-26 8-40-7-50-20-9-12-21-17-31-10-9 7-4 19 6 20 8 1 12-6 9-12"/>
    <path d="M530 1155c-15 11-30 15-42 8-8-5-13-14-21-17-11-5-18 6-13 15 4 7 13 7 17 1"/>
    <path d="M590 1149c-8 18-5 34 7 41 11 7 22-2 18-13-3-8-12-10-17-4"/>
    <path d="M582 1167c-11 13-22 22-34 22-12 0-20-11-14-21 5-8 15-7 19 0 3 6-1 12-6 14"/>
    <path d="M626 1130c19-5 31-20 43-15 12 5 9 22-3 24-9 2-16-6-13-14"/>
    <path d="M661 1141c18 30 43 30 59 13 13-14 8-34-7-38-13-3-22 8-18 19 3 8 12 11 18 5"/>
    <path d="M700 1157c26 8 40-7 50-20 9-12 21-17 31-10 9 7 4 19-6 20-8 1-12-6-9-12"/>
    <path d="M722 1155c15 11 30 15 42 8 8-5 13-14 21-17 11-5 18 6 13 15-4 7-13 7-17 1"/>
    <path d="M662 1149c8 18 5 34-7 41-11 7-22-2-18-13 3-8 12-10 17-4"/>
    <path d="M670 1167c11 13 22 22 34 22 12 0 20-11 14-21-5-8-15-7-19 0-3 6 1 12 6 14"/>
  </g>
</svg>
